<mxfile host="Electron" modified="2023-04-27T12:22:49.494Z" agent="Mozilla/5.0 (Windows NT 10.0; Win64; x64) AppleWebKit/537.36 (KHTML, like Gecko) draw.io/21.2.1 Chrome/112.0.5615.87 Electron/24.1.2 Safari/537.36" etag="JYpL5bRJP8LeUYsE9YMw" version="21.2.1" type="device">
  <diagram name="Page-1" id="zOYev-U_W_F3rwQkSci8">
    <mxGraphModel dx="864" dy="526" grid="1" gridSize="10" guides="1" tooltips="1" connect="1" arrows="1" fold="1" page="1" pageScale="1" pageWidth="827" pageHeight="1169" math="0" shadow="0">
      <root>
        <mxCell id="0" />
        <mxCell id="1" parent="0" />
        <mxCell id="P63Ja0f8gnCYdCOqzlbo-47" value="" style="endArrow=block;endSize=16;endFill=0;html=1;rounded=0;edgeStyle=elbowEdgeStyle;elbow=vertical;exitX=0.5;exitY=0;exitDx=0;exitDy=0;entryX=0.25;entryY=1;entryDx=0;entryDy=0;" parent="1" source="zn8nNluCNU0fyRtagkkF-7" target="zn8nNluCNU0fyRtagkkF-3" edge="1">
          <mxGeometry width="160" relative="1" as="geometry">
            <mxPoint x="340" y="706" as="sourcePoint" />
            <mxPoint x="378.79999999999995" y="411" as="targetPoint" />
            <Array as="points">
              <mxPoint x="350" y="250" />
              <mxPoint x="500" y="440" />
            </Array>
          </mxGeometry>
        </mxCell>
        <mxCell id="P63Ja0f8gnCYdCOqzlbo-48" value="" style="endArrow=block;endSize=16;endFill=0;html=1;rounded=0;entryX=0.75;entryY=1;entryDx=0;entryDy=0;exitX=0.5;exitY=0;exitDx=0;exitDy=0;edgeStyle=elbowEdgeStyle;elbow=vertical;" parent="1" source="zn8nNluCNU0fyRtagkkF-12" target="zn8nNluCNU0fyRtagkkF-3" edge="1">
          <mxGeometry width="160" relative="1" as="geometry">
            <mxPoint x="340" y="128.9999999999999" as="sourcePoint" />
            <mxPoint x="449.20000000000005" y="411" as="targetPoint" />
            <Array as="points">
              <mxPoint x="500" y="250" />
            </Array>
          </mxGeometry>
        </mxCell>
        <mxCell id="P63Ja0f8gnCYdCOqzlbo-112" value="" style="endArrow=none;html=1;edgeStyle=elbowEdgeStyle;rounded=0;exitX=1;exitY=0.5;exitDx=0;exitDy=0;entryX=0;entryY=0.25;entryDx=0;entryDy=0;" parent="1" source="zn8nNluCNU0fyRtagkkF-3" target="zn8nNluCNU0fyRtagkkF-6" edge="1">
          <mxGeometry relative="1" as="geometry">
            <mxPoint x="494" y="101" as="sourcePoint" />
            <mxPoint x="630" y="219" as="targetPoint" />
          </mxGeometry>
        </mxCell>
        <mxCell id="P63Ja0f8gnCYdCOqzlbo-114" value="1..*" style="edgeLabel;resizable=0;html=1;align=right;verticalAlign=bottom;fontStyle=1" parent="P63Ja0f8gnCYdCOqzlbo-112" connectable="0" vertex="1">
          <mxGeometry x="1" relative="1" as="geometry">
            <mxPoint x="-2" as="offset" />
          </mxGeometry>
        </mxCell>
        <mxCell id="P63Ja0f8gnCYdCOqzlbo-125" value="" style="endArrow=none;html=1;edgeStyle=elbowEdgeStyle;rounded=0;entryX=0.25;entryY=0;entryDx=0;entryDy=0;exitX=0.25;exitY=1;exitDx=0;exitDy=0;elbow=vertical;" parent="1" source="zn8nNluCNU0fyRtagkkF-12" target="zn8nNluCNU0fyRtagkkF-15" edge="1">
          <mxGeometry relative="1" as="geometry">
            <mxPoint x="479.03999999999996" y="569" as="sourcePoint" />
            <mxPoint x="316.28" y="680" as="targetPoint" />
          </mxGeometry>
        </mxCell>
        <mxCell id="P63Ja0f8gnCYdCOqzlbo-126" value="1..*" style="edgeLabel;resizable=0;html=1;align=right;verticalAlign=bottom;fontStyle=1" parent="P63Ja0f8gnCYdCOqzlbo-125" connectable="0" vertex="1">
          <mxGeometry x="1" relative="1" as="geometry">
            <mxPoint x="-2" as="offset" />
          </mxGeometry>
        </mxCell>
        <mxCell id="P63Ja0f8gnCYdCOqzlbo-133" value="" style="endArrow=none;html=1;edgeStyle=elbowEdgeStyle;rounded=0;elbow=vertical;exitX=0.75;exitY=1;exitDx=0;exitDy=0;entryX=0.75;entryY=0;entryDx=0;entryDy=0;" parent="1" source="zn8nNluCNU0fyRtagkkF-12" target="zn8nNluCNU0fyRtagkkF-15" edge="1">
          <mxGeometry relative="1" as="geometry">
            <mxPoint x="555.8400000000001" y="569" as="sourcePoint" />
            <mxPoint x="513.72" y="680" as="targetPoint" />
          </mxGeometry>
        </mxCell>
        <mxCell id="P63Ja0f8gnCYdCOqzlbo-134" value="1..*" style="edgeLabel;resizable=0;html=1;align=right;verticalAlign=bottom;fontStyle=1" parent="P63Ja0f8gnCYdCOqzlbo-133" connectable="0" vertex="1">
          <mxGeometry x="1" relative="1" as="geometry">
            <mxPoint x="-2" as="offset" />
          </mxGeometry>
        </mxCell>
        <mxCell id="P63Ja0f8gnCYdCOqzlbo-138" value="" style="endArrow=none;html=1;edgeStyle=elbowEdgeStyle;rounded=0;elbow=vertical;exitX=0.25;exitY=1;exitDx=0;exitDy=0;entryX=0.5;entryY=1;entryDx=0;entryDy=0;" parent="1" source="zn8nNluCNU0fyRtagkkF-6" target="zn8nNluCNU0fyRtagkkF-15" edge="1">
          <mxGeometry relative="1" as="geometry">
            <mxPoint x="673.5344" y="656" as="sourcePoint" />
            <mxPoint x="530" y="690" as="targetPoint" />
            <Array as="points">
              <mxPoint x="600" y="620" />
              <mxPoint x="600" y="870" />
            </Array>
          </mxGeometry>
        </mxCell>
        <mxCell id="P63Ja0f8gnCYdCOqzlbo-139" value="1..*" style="edgeLabel;resizable=0;html=1;align=right;verticalAlign=bottom;fontStyle=1" parent="P63Ja0f8gnCYdCOqzlbo-138" connectable="0" vertex="1">
          <mxGeometry x="1" relative="1" as="geometry">
            <mxPoint x="-2" y="13" as="offset" />
          </mxGeometry>
        </mxCell>
        <mxCell id="P63Ja0f8gnCYdCOqzlbo-140" value="" style="endArrow=none;html=1;edgeStyle=elbowEdgeStyle;rounded=0;elbow=vertical;exitX=0.75;exitY=1;exitDx=0;exitDy=0;entryX=0.5;entryY=1;entryDx=0;entryDy=0;" parent="1" source="zn8nNluCNU0fyRtagkkF-6" target="zn8nNluCNU0fyRtagkkF-14" edge="1">
          <mxGeometry relative="1" as="geometry">
            <mxPoint x="753.9056" y="656" as="sourcePoint" />
            <mxPoint x="316.28" y="1133" as="targetPoint" />
            <Array as="points">
              <mxPoint x="580" y="640" />
              <mxPoint x="510" y="680" />
              <mxPoint x="560" y="710" />
              <mxPoint x="580" y="1150" />
            </Array>
          </mxGeometry>
        </mxCell>
        <mxCell id="P63Ja0f8gnCYdCOqzlbo-141" value="1..*" style="edgeLabel;resizable=0;html=1;align=right;verticalAlign=bottom;fontStyle=1" parent="P63Ja0f8gnCYdCOqzlbo-140" connectable="0" vertex="1">
          <mxGeometry x="1" relative="1" as="geometry">
            <mxPoint x="-2" y="13" as="offset" />
          </mxGeometry>
        </mxCell>
        <mxCell id="P63Ja0f8gnCYdCOqzlbo-142" value="" style="endArrow=none;html=1;edgeStyle=elbowEdgeStyle;rounded=0;exitX=1;exitY=0.5;exitDx=0;exitDy=0;entryX=0;entryY=0.75;entryDx=0;entryDy=0;" parent="1" source="zn8nNluCNU0fyRtagkkF-12" target="zn8nNluCNU0fyRtagkkF-6" edge="1">
          <mxGeometry relative="1" as="geometry">
            <mxPoint x="597.44" y="519" as="sourcePoint" />
            <mxPoint x="630" y="245" as="targetPoint" />
          </mxGeometry>
        </mxCell>
        <mxCell id="P63Ja0f8gnCYdCOqzlbo-143" value="1..*" style="edgeLabel;resizable=0;html=1;align=right;verticalAlign=bottom;fontStyle=1" parent="P63Ja0f8gnCYdCOqzlbo-142" connectable="0" vertex="1">
          <mxGeometry x="1" relative="1" as="geometry">
            <mxPoint x="-2" as="offset" />
          </mxGeometry>
        </mxCell>
        <mxCell id="P63Ja0f8gnCYdCOqzlbo-144" value="" style="endArrow=none;html=1;edgeStyle=orthogonalEdgeStyle;rounded=0;exitX=0;exitY=0.25;exitDx=0;exitDy=0;elbow=vertical;entryX=0.25;entryY=1;entryDx=0;entryDy=0;" parent="1" source="zn8nNluCNU0fyRtagkkF-7" target="zn8nNluCNU0fyRtagkkF-14" edge="1">
          <mxGeometry relative="1" as="geometry">
            <mxPoint x="240" y="519" as="sourcePoint" />
            <mxPoint x="468.5111999999999" y="1132.236" as="targetPoint" />
            <Array as="points">
              <mxPoint x="170" y="298" />
              <mxPoint x="170" y="590" />
              <mxPoint x="273" y="590" />
            </Array>
          </mxGeometry>
        </mxCell>
        <mxCell id="P63Ja0f8gnCYdCOqzlbo-145" value="1..*" style="edgeLabel;resizable=0;html=1;align=right;verticalAlign=bottom;fontStyle=1" parent="P63Ja0f8gnCYdCOqzlbo-144" connectable="0" vertex="1">
          <mxGeometry x="1" relative="1" as="geometry">
            <mxPoint x="-4" y="15" as="offset" />
          </mxGeometry>
        </mxCell>
        <mxCell id="P63Ja0f8gnCYdCOqzlbo-146" value="" style="endArrow=none;html=1;edgeStyle=elbowEdgeStyle;rounded=0;entryX=0;entryY=0.5;entryDx=0;entryDy=0;exitX=0;exitY=0.75;exitDx=0;exitDy=0;elbow=vertical;" parent="1" source="zn8nNluCNU0fyRtagkkF-7" target="zn8nNluCNU0fyRtagkkF-14" edge="1">
          <mxGeometry relative="1" as="geometry">
            <mxPoint x="240" y="545" as="sourcePoint" />
            <mxPoint x="467" y="1144" as="targetPoint" />
            <Array as="points">
              <mxPoint x="200" y="650" />
              <mxPoint x="180" y="1160" />
              <mxPoint x="120" y="1190" />
              <mxPoint x="330" y="1170" />
            </Array>
          </mxGeometry>
        </mxCell>
        <mxCell id="P63Ja0f8gnCYdCOqzlbo-147" value="1..*" style="edgeLabel;resizable=0;html=1;align=right;verticalAlign=bottom;fontStyle=1" parent="P63Ja0f8gnCYdCOqzlbo-146" connectable="0" vertex="1">
          <mxGeometry x="1" relative="1" as="geometry">
            <mxPoint x="-2" as="offset" />
          </mxGeometry>
        </mxCell>
        <mxCell id="P63Ja0f8gnCYdCOqzlbo-151" value="" style="html=1;shadow=0;dashed=0;align=center;verticalAlign=middle;shape=mxgraph.arrows2.arrow;dy=0.6;dx=40;notch=0;gradientColor=none;fillColor=#000000;direction=south;" parent="1" vertex="1">
          <mxGeometry x="149.5" y="468" width="13" height="10" as="geometry" />
        </mxCell>
        <mxCell id="P63Ja0f8gnCYdCOqzlbo-152" value="" style="html=1;shadow=0;dashed=0;align=center;verticalAlign=middle;shape=mxgraph.arrows2.arrow;dy=0.6;dx=40;notch=0;gradientColor=none;fillColor=#000000;direction=south;" parent="1" vertex="1">
          <mxGeometry x="207.44" y="448" width="13" height="10" as="geometry" />
        </mxCell>
        <mxCell id="P63Ja0f8gnCYdCOqzlbo-153" value="Create Sales" style="text;html=1;strokeColor=none;fillColor=none;align=center;verticalAlign=middle;whiteSpace=wrap;rounded=0;fontSize=10;rotation=90;" parent="1" vertex="1">
          <mxGeometry x="169.94" y="410" width="90" height="10" as="geometry" />
        </mxCell>
        <mxCell id="P63Ja0f8gnCYdCOqzlbo-154" value="Create Purchase" style="text;html=1;strokeColor=none;fillColor=none;align=center;verticalAlign=middle;whiteSpace=wrap;rounded=0;fontSize=10;rotation=90;" parent="1" vertex="1">
          <mxGeometry x="112" y="420" width="90" height="10" as="geometry" />
        </mxCell>
        <mxCell id="P63Ja0f8gnCYdCOqzlbo-155" value="" style="html=1;shadow=0;dashed=0;align=center;verticalAlign=middle;shape=mxgraph.arrows2.arrow;dy=0.6;dx=40;notch=0;gradientColor=none;fillColor=#000000;direction=north;" parent="1" vertex="1">
          <mxGeometry x="597.44" y="250" width="13" height="10" as="geometry" />
        </mxCell>
        <mxCell id="P63Ja0f8gnCYdCOqzlbo-156" value="Add Inventory Item," style="text;html=1;strokeColor=none;fillColor=none;align=center;verticalAlign=middle;whiteSpace=wrap;rounded=0;fontSize=10;rotation=270;" parent="1" vertex="1">
          <mxGeometry x="558.94" y="304" width="90" height="10" as="geometry" />
        </mxCell>
        <mxCell id="zn8nNluCNU0fyRtagkkF-3" value="&amp;lt;&amp;lt;User&amp;gt;&amp;gt;" style="html=1;whiteSpace=wrap;fontSize=14;fontStyle=2" parent="1" vertex="1">
          <mxGeometry x="337" y="100" width="154" height="70" as="geometry" />
        </mxCell>
        <mxCell id="zn8nNluCNU0fyRtagkkF-6" value="Inventory" style="html=1;whiteSpace=wrap;fontSize=14;fontStyle=0" parent="1" vertex="1">
          <mxGeometry x="640" y="190" width="154" height="70" as="geometry" />
        </mxCell>
        <mxCell id="zn8nNluCNU0fyRtagkkF-7" value="Employee" style="html=1;whiteSpace=wrap;fontSize=14;" parent="1" vertex="1">
          <mxGeometry x="240" y="280" width="154" height="70" as="geometry" />
        </mxCell>
        <mxCell id="zn8nNluCNU0fyRtagkkF-12" value="Super Admin" style="html=1;whiteSpace=wrap;fontSize=14;" parent="1" vertex="1">
          <mxGeometry x="436.71999999999997" y="340" width="154" height="70" as="geometry" />
        </mxCell>
        <mxCell id="zn8nNluCNU0fyRtagkkF-14" value="Sales" style="html=1;whiteSpace=wrap;fontSize=14;" parent="1" vertex="1">
          <mxGeometry x="234" y="491" width="154" height="70" as="geometry" />
        </mxCell>
        <mxCell id="zn8nNluCNU0fyRtagkkF-15" value="Purchase" style="html=1;whiteSpace=wrap;fontSize=14;" parent="1" vertex="1">
          <mxGeometry x="436.72" y="530" width="154" height="70" as="geometry" />
        </mxCell>
      </root>
    </mxGraphModel>
  </diagram>
</mxfile>
